<?xml version="1.0" encoding="utf-8"?>
<!-- Generator: Adobe Illustrator 21.0.2, SVG Export Plug-In . SVG Version: 6.00 Build 0)  -->
<svg version="1.1" id="Слой_1" xmlns="http://www.w3.org/2000/svg" xmlns:xlink="http://www.w3.org/1999/xlink" x="0px" y="0px" viewBox="0 0 416 336" style="enable-background:new 0 0 416 336;" xml:space="preserve">
  <style type="text/css">
  .st0 {
    stroke: #000000;
    stroke-miterlimit: 10;
    fill: #f00;
  }
  </style>
  <g transform="translate(0.000000,336.000000) scale(0.100000,-0.100000)">
    <path class="st0" d="M1932.3,3085.5c-318-305.5-1531-1457.3-1638-1555.3c-36-32.7-75-69.2-86-81.7c-12-12.5-49-49-83-80.7
    c-33-31.7-69-65.3-78-74.9c-17-17.3-6-18.3,395-14.4l413,2.9l-1-583.1V114.1h410h410l2,392l3,391l403,2.9l402,1.9V508V114.1h405 l405,1l-2,580.2c-3,511.1-1,581.2
,12,581.2c8,0,195,0,414,0h399l-24,25c-33,33.6-235,225.8-541,514l-258,242.1v195v196h-191h-192
    l-252,247.9c-139,135.5-322,315.1-406,398.7l-154,150.8L1932.3,3085.5z" />
  </g>
</svg>
