<svg id="Слой_1" data-name="Слой 1" xmlns="http://www.w3.org/2000/svg" viewBox="0 0 100 60">
  <defs>
    <style>
    .cls-1 {
      fill: #fff;
    }
    </style>
  </defs>
  <title>Logo-Style-House</title>
  <path class="cls-1" d="M97.57,58.63s-1.47-.57-4-1.64c-1.26-.59-2.85-1.05-4.63-1.71s-3.83-1.24-6-1.91l-1.7-.51-1.79-.42-3.75-.91c-1.29-.29-2.63-.49-4-.74s-2.74-.54-4.17-.68l-4.33-.57c-1.46-.16-3-.23-4.45-.36L56.45,49c-.75,0-1.51,0-2.27-.06l-4.57-.12L45,48.94c-.77,0-1.54,0-2.3.07l-2.24.18c-1.49.13-3,.21-4.43.36l-4.33.57c-1.43.14-2.81.45-4.17.68s-2.7.45-4,.74l-3.75.91L18,52.86l-1.7.51c-2.22.67-4.28,1.22-6.05,1.91S6.9,56.41,5.65,57c-2.53,1.06-4,1.64-4,1.64S3,57.76,5.4,56.3a50.39,50.39,0,0,1,4.45-2.38l1.35-.67.7-.35.74-.31,3.16-1.29,1.69-.69,1.78-.6L23,48.79c1.3-.39,2.65-.69,4-1.05s2.79-.71,4.24-.93L35.72,46c1.5-.22,3-.34,4.58-.51l2.33-.23c.77-.06,1.54-.07,2.31-.1L49.61,45l4.69.16c.78,0,1.56,0,2.33.1l2.31.23c1.53.16,3.06.29,4.56.51l4.42.77c1.45.22,2.86.58,4.24.93s2.73.66,4,1L79.95,50l1.78.6,1.69.69,3.16,1.3.74.31.71.35,1.35.68a49.85,49.85,0,0,1,4.45,2.37C96.22,57.76,97.57,58.63,97.57,58.63Z" />
  <path class="cls-1" d="M40.52,37.65h4.16V33.49H40.52Zm6.92,0h4.16V33.49H47.44ZM96.22,47,78.42,29.43v-18L69.85,2.88V21l-17-16.74L49.52,1,46.19,4.24,2.83,47,49.52,14.6ZM49.61,4.55v7L20.19,32.88ZM40.52,31.1h4.16V26.94H40.52Zm6.92,0h4.16V26.94H47.44Zm6.92,0h4.16V26.94H54.36Zm0,6.55h4.16V33.49H54.36Z" />
</svg>
